<svg width="28" height="28" viewBox="0 0 28 28" fill="none" xmlns="http://www.w3.org/2000/svg">
<path d="M14 2C7.37258 2 2 7.37258 2 14C2 20.6274 7.37258 26 14 26C20.6274 26 26 20.6274 26 14C26 7.37258 20.6274 2 14 2Z" stroke="#12A454" stroke-width="3" stroke-linecap="round" stroke-linejoin="round"/>
<path fill-rule="evenodd" clip-rule="evenodd" d="M14 6.5C13.4083 6.5 12.9286 6.97969 12.9286 7.57143V12.9286H7.57143C6.97969 12.9286 6.5 13.4083 6.5 14C6.5 14.5917 6.97969 15.0714 7.57143 15.0714H12.9286V20.4286C12.9286 21.0203 13.4083 21.5 14 21.5C14.5917 21.5 15.0714 21.0203 15.0714 20.4286V15.0714H20.4286C21.0203 15.0714 21.5 14.5917 21.5 14C21.5 13.4083 21.0203 12.9286 20.4286 12.9286H15.0714V7.57143C15.0714 6.97969 14.5917 6.5 14 6.5Z" fill="#12A454"/>
</svg>
  